<svg width="62" height="83" viewBox="0 0 62 83" fill="none" xmlns="http://www.w3.org/2000/svg">
<path d="M52.4001 58.65C54.6001 59.37 56.4101 60.39 57.8201 61.71C58.1301 61.93 58.2801 62.18 58.2801 62.47C58.2801 62.94 57.9301 63.39 57.2201 63.83C56.3901 64.35 55.1501 65.27 53.5101 66.59C51.9901 67.8 50.7601 68.68 49.8301 69.24C49.6501 69.33 49.4701 69.38 49.2901 69.38C49.0201 69.38 48.7801 69.28 48.5901 69.1C48.3901 68.91 48.2901 68.69 48.2901 68.44C48.2901 68.22 48.3701 68.03 48.5301 67.84C48.7501 67.48 49.2501 67.08 50.0501 66.65C50.5701 66.38 51.2201 65.94 52.0001 65.32C52.9401 64.56 53.5901 64.06 53.9501 63.83C54.7401 63.43 55.1401 63.15 55.1401 62.99C55.1401 62.95 55.1301 62.92 55.1101 62.88C54.6801 62.12 53.9601 61.55 52.9701 61.17C52.0901 60.92 51.1901 60.66 50.2901 60.38C49.2301 60.06 48.4401 59.6 47.9301 59C47.8901 58.95 47.8801 58.88 47.8801 58.81C47.8801 58.59 48.0101 58.35 48.2601 58.09C48.5101 57.83 48.7601 57.7 48.9901 57.7C49.1301 57.66 49.2801 57.65 49.4201 57.65C49.8401 57.65 50.3501 57.78 50.9601 58.03C51.4301 58.23 51.9101 58.43 52.4001 58.65ZM10.1501 57.76C10.5601 57.76 10.9001 57.87 11.1701 58.09C11.4301 58.31 11.5601 58.56 11.5601 58.85C11.5601 59.07 11.4801 59.26 11.3201 59.42C10.7201 60.07 9.50009 60.77 7.64009 61.51C5.92009 62.2 4.77009 62.99 4.17009 63.89C5.18009 64.5 6.51009 65.17 8.15009 65.89C10.7701 67.06 12.1201 67.67 12.2101 67.71C12.5501 67.87 12.7201 68.13 12.7201 68.5C12.7601 68.95 12.5801 69.33 12.1901 69.65C11.8001 69.97 11.3501 70.12 10.8501 70.12C10.6501 70.12 10.4601 70.08 10.2801 70.01C10.0601 69.79 9.77009 69.54 9.39009 69.25C7.01009 67.95 4.46009 66.71 1.75009 65.54C1.48009 65.43 1.21009 65.33 0.940088 65.24C0.600088 65.08 0.400088 64.84 0.340088 64.54C0.340088 63.76 0.680088 63.04 1.37009 62.37C2.20009 61.7 3.57009 60.94 5.49009 60.07C7.35009 59.24 8.69009 58.47 9.53009 57.77C9.53009 57.76 9.73009 57.76 10.1501 57.76Z" fill="#5B4538"/>
<path d="M27.1401 57.72C26.6901 57.07 26.2701 56.61 25.8901 56.34C25.5101 56.07 25.0701 55.94 24.5601 55.94C24.3801 55.94 24.2201 55.97 24.0901 56.02L21.0901 57.06C20.9201 57.12 20.7201 57.14 20.5001 57.14C20.1001 57.14 19.7801 57.05 19.5401 56.86C19.2901 56.68 18.9901 56.31 18.6401 55.76L17.8101 56.31C18.3301 57.06 18.7801 57.56 19.1401 57.8C19.5101 58.05 19.9701 58.17 20.5401 58.17C20.7901 58.17 21.0401 58.13 21.2801 58.06L24.0301 57.06C24.2101 56.99 24.4101 56.95 24.6201 56.95C24.9701 56.95 25.2601 57.02 25.4701 57.17C25.6801 57.31 25.9801 57.64 26.3601 58.16L27.1401 57.72Z" fill="#5B4538"/>
<path fill-rule="evenodd" clip-rule="evenodd" d="M47.41 74.29C48.92 83.31 37.89 84.18 33.36 80.13C30.23 77.33 31.11 73.44 35.6 73.68C39.55 73.89 41.88 78.99 47.41 74.29Z" fill="#5B4538"/>
<path fill-rule="evenodd" clip-rule="evenodd" d="M13.9101 74.29C12.4001 83.31 23.4301 84.18 27.9601 80.13C31.0901 77.33 30.2101 73.44 25.7201 73.68C21.7701 73.89 19.4401 78.99 13.9101 74.29Z" fill="#5B4538"/>
<path d="M24.7402 61.2C24.2402 60.85 23.6202 60.67 22.8802 60.67C21.9902 60.67 21.2702 60.94 20.7102 61.47C20.0602 62.06 19.8102 62.9 19.9602 64C20.0502 64.89 20.3702 65.67 20.9102 66.35C21.4602 67.03 22.1202 67.37 22.8802 67.37C23.3502 67.37 23.8402 67.24 24.3402 66.97C25.2302 66.44 25.6702 65.42 25.6702 63.91C25.6702 62.55 25.3602 61.65 24.7402 61.2ZM22.8402 64.79C22.3202 64.79 21.8902 64.37 21.8902 63.84C21.8902 63.32 22.3102 62.89 22.8402 62.89C23.3602 62.89 23.7902 63.31 23.7902 63.84C23.7902 64.37 23.3602 64.79 22.8402 64.79Z" fill="#5B4538"/>
<path d="M31.34 72.91C31.62 72.91 31.89 72.86 32.14 72.76C32.39 72.66 32.62 72.54 32.83 72.38C33.04 72.22 33.23 72.04 33.4 71.85C33.57 71.65 33.72 71.46 33.84 71.25C33.97 71.05 34.07 70.86 34.15 70.67C34.23 70.49 34.29 70.34 34.32 70.21C34.31 70.19 34.3 70.16 34.28 70.12C34.26 70.09 34.24 70.06 34.23 70.03C34.21 70.01 34.19 70 34.18 70C33.94 70.44 33.68 70.8 33.38 71.08C33.08 71.36 32.75 71.56 32.4 71.69C32.04 71.82 31.65 71.88 31.24 71.88C30.88 71.88 30.56 71.83 30.28 71.74C29.99 71.65 29.74 71.51 29.51 71.34C29.28 71.16 29.08 70.95 28.89 70.71C28.71 70.47 28.54 70.19 28.39 69.89C28.38 69.89 28.37 69.9 28.35 69.92C28.33 69.94 28.31 69.97 28.3 70C28.28 70.03 28.28 70.05 28.27 70.07C28.41 70.46 28.58 70.82 28.79 71.17C28.99 71.51 29.22 71.81 29.48 72.07C29.74 72.33 30.02 72.54 30.34 72.69C30.64 72.82 30.98 72.9 31.34 72.91Z" fill="#5B4538"/>
<path d="M40.1301 61.14C39.6301 60.79 39.0101 60.61 38.2701 60.61C37.3801 60.61 36.66 60.88 36.1 61.41C35.45 62 35.2 62.85 35.35 63.94C35.44 64.83 35.76 65.61 36.3 66.29C36.85 66.97 37.5101 67.31 38.2701 67.31C38.7401 67.31 39.2301 67.18 39.7301 66.91C40.6201 66.38 41.0601 65.36 41.0601 63.85C41.0701 62.48 40.7601 61.58 40.1301 61.14ZM37.9501 64.9C37.4301 64.9 37.0001 64.47 37.0001 63.95C37.0001 63.43 37.4201 63 37.9501 63C38.4701 63 38.9001 63.42 38.9001 63.95C38.9001 64.48 38.4701 64.9 37.9501 64.9Z" fill="#5B4538"/>
<path d="M46.65 50.38C48.19 49.71 48.98 44.51 50.02 39.67C53.77 31.1 62.14 24.79 61.64 16.82C54.77 3.37 45.15 2.89 41.03 1.82C35.69 0.829999 30.36 0.0999984 25.03 0.869998C21.24 1.43 16.33 5.08 11.79 5.39C7.46004 6.82 6.38003 8.72 5.17003 10.39C3.82003 13.33 3.51003 16.26 4.17003 19.2C5.83003 24.48 8.38003 29.28 9.17003 35.03C10.92 38.12 11.04 43.96 15.04 47.88C27.28 42.05 37.28 46.57 46.65 50.38Z" fill="url(#paint0_linear_202_48)"/>
<path d="M46.5 50.44L45.35 49.97C36.16 46.22 26.65 42.33 14.93 47.92L14.86 47.95L14.81 47.9C12.2 45.34 11.24 42.03 10.4 39.1C9.95001 37.56 9.53001 36.11 8.92001 35.02L8.91001 34.98C8.38001 31.16 7.06001 27.69 5.78001 24.34C5.14001 22.66 4.47001 20.92 3.92001 19.16C3.25001 16.18 3.59001 13.19 4.92001 10.28C5.02001 10.14 5.11001 10.01 5.20001 9.88C6.31001 8.32 7.56001 6.55 11.6 5.22C14.1 5.04 16.68 3.87 19.17 2.74C21.21 1.81 23.14 0.940001 24.86 0.690001C29.93 -0.0399988 34.93 0.540001 40.88 1.64C41.36 1.76 41.89 1.88 42.5 2.01C47.03 2.97 55.46 4.74 61.56 16.7L61.57 16.74C61.88 21.7 58.79 26.02 55.51 30.59C53.48 33.43 51.37 36.37 49.94 39.64C49.78 40.4 49.62 41.19 49.46 41.97C48.6 46.18 47.86 49.82 46.51 50.41L46.5 50.44ZM26.86 44.91C33.52 44.91 39.54 47.37 45.44 49.78L46.5 50.21C47.72 49.61 48.48 45.88 49.29 41.94C49.45 41.16 49.61 40.37 49.78 39.59C51.23 36.28 53.34 33.33 55.38 30.48C58.63 25.94 61.7 21.66 61.4 16.78C55.33 4.94 47.29 3.25 42.48 2.23C41.86 2.1 41.33 1.99 40.85 1.86C34.93 0.770001 29.94 0.190001 24.9 0.920001C23.21 1.17 21.3 2.04 19.27 2.95C16.76 4.09 14.17 5.26 11.65 5.44C7.70001 6.75 6.47001 8.48 5.38001 10.02C5.29001 10.15 5.20001 10.27 5.11001 10.4C3.80001 13.25 3.47001 16.2 4.13001 19.12C4.68001 20.87 5.34001 22.6 5.99001 24.28C7.27001 27.63 8.60001 31.1 9.13001 34.94C9.75001 36.04 10.17 37.5 10.62 39.04C11.45 41.92 12.4 45.18 14.93 47.7C19.16 45.69 23.11 44.91 26.86 44.91Z" fill="#C8BCA8"/>
<path fill-rule="evenodd" clip-rule="evenodd" d="M15.39 51.28C19.8 48.94 30.84 43.15 45.62 53.3C46.04 50.92 46.08 48.54 45.75 46.16C45.33 40.53 23.27 33.64 15.27 46.04L15.39 51.28Z" fill="url(#paint1_linear_202_48)"/>
<path d="M45.66 53.38L45.6 53.34C39.27 48.99 32.89 47.08 26.62 47.65C21.44 48.12 17.52 50.2 15.41 51.32L15.35 51.35V51.28L15.23 46.03L15.24 46.02C17.4 42.68 20.67 40.5 24.98 39.56C28.51 38.78 32.63 38.91 36.58 39.92C41.84 41.26 45.63 43.83 45.8 46.16C46.13 48.53 46.09 50.94 45.67 53.31L45.66 53.38ZM28.79 47.46C34.35 47.46 39.99 49.39 45.59 53.23C45.99 50.89 46.03 48.51 45.7 46.17C45.53 43.91 41.68 41.31 36.54 40C32.61 39 28.5 38.87 24.98 39.64C20.7 40.58 17.44 42.74 15.3 46.05L15.42 51.2C17.55 50.07 21.45 48.02 26.6 47.55C27.34 47.49 28.07 47.46 28.79 47.46Z" fill="#C8BCA8"/>
<path fill-rule="evenodd" clip-rule="evenodd" d="M9.17993 9.49999C8.49993 12.93 11.5399 23.76 10.5199 29.44C9.99993 26.46 8.09993 20.55 8.17993 17.22C7.25993 15.22 6.33993 12.8 5.32993 11.87C4.41993 11.04 7.41993 6.08999 9.17993 9.49999Z" fill="url(#paint2_linear_202_48)"/>
<path d="M16.1099 44.36C16.0999 44.35 16.0999 44.35 16.0999 44.34C12.0999 39.66 10.4499 31.6 9.05992 24.81C7.95992 19.42 7.01991 14.82 5.19991 13.37L5.18991 13.36C4.95991 13.06 4.82991 12.71 4.77991 12.34C4.68991 11.7 4.84992 11 5.17992 10.35C5.49992 9.7 5.98991 9.12 6.56991 8.72C6.96991 8.44 7.41992 8.26 7.87992 8.2L7.88992 8.29C7.43992 8.34 7.00991 8.53 6.61992 8.79C6.18992 9.38 5.86992 9.76 5.54992 10.39C4.65992 12.17 6.50991 12.08 7.23991 13.05C9.07991 14.53 9.22992 19.38 10.3399 24.79C11.7299 31.57 12.1799 39.62 16.1599 44.28C16.1699 44.29 16.1699 44.29 16.1699 44.3L16.1099 44.36Z" fill="#A99675"/>
<path fill-rule="evenodd" clip-rule="evenodd" d="M15.9599 8.1C15.2799 11.53 17.0199 19.4 16.0099 25.09C15.4899 22.11 13.5899 16.2 13.6699 12.87C12.7499 10.87 11.6499 8.59 10.9999 7.41C10.4099 6.35 13.4499 4.92 15.9599 8.1Z" fill="url(#paint3_linear_202_48)"/>
<path d="M14.63 6.9C13.76 6.31 13.41 6.34 12.66 6.44C12.35 6.48 12.09 6.58 11.89 6.72C11.69 6.86 11.56 7.06 11.52 7.3C11.48 7.66 11.24 7.72 11.57 8.38C13.79 11.39 15.48 16.38 15.95 21.69C16.54 28.42 15.76 35.88 20.22 41.16L20.15 41.22C15.67 35.91 15.01 28.44 14.42 21.7C13.95 16.4 13.52 11.55 11.32 8.56C10.86 7.94 10.72 7.43 10.79 7.03C10.84 6.76 10.98 6.55 11.2 6.39C11.41 6.23 11.69 6.13 12.02 6.09C12.79 5.99 13.8 6.22 14.69 6.83L14.63 6.9Z" fill="#A99675"/>
<path d="M26.8697 2.08C28.9297 5.52 25.1397 21 24.4697 30.73C24.4097 31.55 17.1497 -1.38 26.8697 2.08Z" fill="url(#paint4_linear_202_48)"/>
<path d="M25.9998 39.32C23.6498 33.2 21.1298 22.58 20.7398 14.2C20.5898 10.9 20.7598 7.94 21.4098 5.74C22.0598 3.53 23.1898 2.09 24.9398 1.83C25.5098 1.74 26.1498 1.79 26.8598 1.97L26.8298 2.06C26.1298 1.88 25.4798 2.03 24.9198 2.12C23.4598 2.45 23.6298 3.37 22.6698 5.44C22.0298 7.63 21.6698 10.34 21.9598 13.64C23.2098 21.81 24.7398 32.95 26.0698 39.29L25.9998 39.32Z" fill="#B5A584"/>
<path d="M32.8398 38.79C32.7498 38.13 32.6598 37.45 32.5598 36.76C31.0298 25.74 29.1598 12.26 35.7198 2.57L35.7998 2.62C33.1098 9.79 32.7498 23.44 32.4298 27.85C32.2898 29.75 32.5098 33.83 32.6598 36.74C32.7498 37.42 32.8498 38.1 32.9398 38.77L32.8398 38.79Z" fill="#CABB9C"/>
<path d="M39.9599 40.21C40.1899 34.5 40.7999 27.82 41.3499 22.03C42.7299 14.73 46.4399 11.28 47.4099 3.9L47.4299 3.81C43.8899 9.58 41.9199 15.82 40.8899 22.05C39.8699 28.28 39.7899 34.5 40.0599 40.21H39.9599Z" fill="url(#paint5_linear_202_48)"/>
<path d="M57.1198 12.57C54.1698 21.73 50.6298 30.68 47.0598 39.74C47.1598 27.75 53.5898 13.31 57.1198 12.57Z" fill="url(#paint6_linear_202_48)"/>
<path d="M45.3699 43.78C46.9299 42.15 47.0399 39.65 47.1799 36.75C47.2999 34.07 47.4399 31.05 48.7499 28.06C48.7799 27.95 48.8399 27.76 48.9099 27.5C49.7799 24.47 53.2599 12.29 57.3199 12.51L57.3099 12.6C54.1199 12.48 50.0699 24.53 49.1099 27.54C49.0399 27.79 49.0199 27.95 48.9799 28.07V28.08C47.8399 31.05 47.7699 34.08 47.3899 36.75C47.2599 39.66 47.0099 42.18 45.4299 43.83L45.3699 43.78Z" fill="#A99675"/>
<defs>
<linearGradient id="paint0_linear_202_48" x1="3.83553" y1="25.4626" x2="61.6589" y2="25.4626" gradientUnits="userSpaceOnUse">
<stop offset="0.0397" stop-color="#F9F9EC"/>
<stop offset="0.4183" stop-color="#F9F9EC"/>
<stop offset="0.4932" stop-color="#F3F1E2"/>
<stop offset="0.6217" stop-color="#E4DDC6"/>
<stop offset="0.7873" stop-color="#CCBC9A"/>
<stop offset="0.7969" stop-color="#CABA97"/>
<stop offset="1" stop-color="#BAA685"/>
</linearGradient>
<linearGradient id="paint1_linear_202_48" x1="15.269" y1="46.2016" x2="45.9735" y2="46.2016" gradientUnits="userSpaceOnUse">
<stop stop-color="#F9F9EC"/>
<stop offset="0.0526" stop-color="#F9F9EC"/>
<stop offset="0.3844" stop-color="#F9F9EC"/>
<stop offset="0.5145" stop-color="#F5F4E5"/>
<stop offset="0.7094" stop-color="#EAE5D0"/>
<stop offset="0.9441" stop-color="#D9CCAF"/>
<stop offset="0.9987" stop-color="#D4C6A6"/>
</linearGradient>
<linearGradient id="paint2_linear_202_48" x1="5.16193" y1="18.8836" x2="10.7321" y2="18.8836" gradientUnits="userSpaceOnUse">
<stop stop-color="#E8DBCA"/>
<stop offset="1" stop-color="#F2ECDE"/>
</linearGradient>
<linearGradient id="paint3_linear_202_48" x1="13.4019" y1="12.8332" x2="16.4597" y2="17.2955" gradientUnits="userSpaceOnUse">
<stop stop-color="#ECE1D1"/>
<stop offset="0.4318" stop-color="#EEE6D9"/>
<stop offset="1" stop-color="#EFE9DE"/>
</linearGradient>
<linearGradient id="paint4_linear_202_48" x1="21.8081" y1="16.2871" x2="27.4722" y2="16.2871" gradientUnits="userSpaceOnUse">
<stop stop-color="#ECE1D1"/>
<stop offset="1" stop-color="#EDE4D5"/>
</linearGradient>
<linearGradient id="paint5_linear_202_48" x1="43.7242" y1="15.9074" x2="43.5775" y2="23.3957" gradientUnits="userSpaceOnUse">
<stop stop-color="#BAA68A"/>
<stop offset="1" stop-color="#C7BAA0"/>
</linearGradient>
<linearGradient id="paint6_linear_202_48" x1="47.062" y1="26.1551" x2="57.1186" y2="26.1551" gradientUnits="userSpaceOnUse">
<stop stop-color="#BDAE99"/>
<stop offset="0.2551" stop-color="#BFB19C"/>
<stop offset="1" stop-color="#C2B5A1"/>
</linearGradient>
</defs>
</svg>
